<?xml version="1.0" encoding="UTF-8"?>
<svg version="1.1" xmlns="http://www.w3.org/2000/svg" width="604" height="604">
<path d="M0 0 C2.93263727 0.01608199 5.86495941 0.00587782 8.79760647 -0.00371075 C29.77505662 -0.05878713 49.8061479 1.31907976 70.19262695 6.63702393 C71.37219971 6.94108154 72.55177246 7.24513916 73.76708984 7.55841064 C108.1663624 16.61607744 141.32583726 30.70159676 170.38012695 51.44952393 C171.45907227 52.21933594 171.45907227 52.21933594 172.55981445 53.00469971 C181.94217789 59.72834729 190.99042185 66.50898085 199.38012695 74.44952393 C200.6661778 75.5809394 201.95775913 76.70610339 203.25512695 77.82452393 C221.84223481 94.07410503 221.84223481 94.07410503 226.38012695 100.44952393 C226.38012695 101.10952393 226.38012695 101.76952393 226.38012695 102.44952393 C222.53463119 100.84571527 219.75321681 98.26165203 216.75512695 95.44952393 C215.96344116 94.71693359 215.96344116 94.71693359 215.15576172 93.96954346 C211.79086448 90.83491065 208.53618755 87.61003058 205.31762695 84.32452393 C200.3150919 79.27434568 194.93795857 74.86987187 189.38012695 70.44952393 C188.26900459 69.52714564 187.15970726 68.60256555 186.05200195 67.67608643 C143.91929133 32.72231574 89.53682479 10.88066174 35.38012695 4.44952393 C34.53861084 4.34784912 33.69709473 4.24617432 32.83007812 4.14141846 C22.96113858 3.13870632 13.02994241 3.22761896 3.12060547 3.20928955 C-0.01907441 3.19964161 -3.15808193 3.16856456 -6.29760742 3.13702393 C-19.66005634 3.06651991 -32.46962515 4.07279906 -45.61987305 6.44952393 C-46.80492432 6.66334717 -47.98997559 6.87717041 -49.2109375 7.09747314 C-52.1765084 7.67855367 -55.11558303 8.32110352 -58.05737305 9.01202393 C-59.11956055 9.26032959 -60.18174805 9.50863525 -61.27612305 9.76446533 C-81.26640282 14.63753035 -101.18675274 21.27381732 -119.61987305 30.44952393 C-120.86124023 31.06198975 -120.86124023 31.06198975 -122.12768555 31.68682861 C-145.68373544 43.40405255 -166.89564906 58.06630632 -186.61987305 75.44952393 C-187.1406543 75.90714111 -187.66143555 76.3647583 -188.19799805 76.83624268 C-195.08488971 82.92193654 -201.97476307 89.16505121 -207.61987305 96.44952393 C-207.61987305 97.10952393 -207.61987305 97.76952393 -207.61987305 98.44952393 C-206.70206055 97.52010986 -205.78424805 96.5906958 -204.83862305 95.63311768 C-192.2052393 82.88960909 -192.2052393 82.88960909 -185.61987305 77.44952393 C-184.95987305 77.77952393 -184.29987305 78.10952393 -183.61987305 78.44952393 C-184.19954834 79.01348877 -184.77922363 79.57745361 -185.37646484 80.1585083 C-188.02816675 82.74739628 -190.6677808 85.34829253 -193.30737305 87.94952393 C-194.21938477 88.83639893 -195.13139648 89.72327393 -196.07104492 90.63702393 C-202.86442936 97.35629872 -208.3394797 103.30247117 -210.43237305 112.82452393 C-210.66569336 113.8428833 -210.89901367 114.86124268 -211.1394043 115.91046143 C-211.68185008 118.34635779 -211.68185008 118.34635779 -211.61987305 120.44952393 C-205.86316344 113.07240717 -200.59231758 105.50636705 -195.60302734 97.59039307 C-185.15829028 81.11091903 -185.15829028 81.11091903 -176.55737305 78.19952393 C-170.05949174 75.78254158 -165.09972638 72.63087252 -159.61987305 68.44952393 C-148.71987672 60.34836536 -137.39130932 53.22259734 -125.61987305 46.44952393 C-124.94279297 46.05990479 -124.26571289 45.67028564 -123.56811523 45.26885986 C-92.7924607 27.76213116 -53.94482777 14.40584093 -18.30737305 14.13702393 C-17.60741211 14.13138428 -16.90745117 14.12574463 -16.1862793 14.11993408 C-12.24284798 14.17695919 -9.17223088 14.72487825 -5.61987305 16.44952393 C-5.61987305 17.43952393 -5.61987305 18.42952393 -5.61987305 19.44952393 C-4.44954277 19.4771154 -4.44954277 19.4771154 -3.25556946 19.50526428 C4.19933834 19.68325283 11.653799 19.87343859 19.10806561 20.07639027 C22.93780281 20.18025433 26.76753921 20.27985309 30.59765625 20.36871338 C51.99298756 20.86938226 73.14740174 21.46277759 93.81762695 27.63702393 C94.85854492 27.94035645 95.89946289 28.24368896 96.97192383 28.55621338 C137.76236189 40.67632305 175.74522141 60.50474114 207.15356445 89.40655518 C209.19440621 91.279117 211.27476392 93.08781927 213.38012695 94.88702393 C220.94980471 101.49328815 227.96750156 108.71853443 234.38012695 116.44952393 C234.79987793 116.95548096 235.21962891 117.46143799 235.65209961 117.98272705 C247.94365479 132.87795426 258.78338483 148.3608072 268.15893555 165.25372314 C269.25538278 167.22522382 270.37137004 169.18393679 271.4934082 171.14093018 C292.60005474 208.57860961 304.42867186 252.87183732 304.58325195 295.80499268 C304.58895203 297.06427078 304.5946521 298.32354889 304.6005249 299.62098694 C304.60992749 302.27928247 304.61684741 304.93746655 304.62036133 307.59576416 C304.62685035 311.58038637 304.6610294 315.5646319 304.69262695 319.5491333 C304.99025157 391.25462892 277.21173351 459.52944009 229.67602539 512.98614502 C228.48315076 514.33318544 227.30957832 515.69725395 226.13793945 517.06280518 C222.53719065 521.23098716 218.8203754 524.97742852 214.6105957 528.52764893 C211.97604791 530.79769711 209.47137255 533.18722249 206.94262695 535.57452393 C169.44429916 570.25822182 120.12170475 591.95697394 70.38012695 601.44952393 C69.48729004 601.62886475 68.59445312 601.80820557 67.67456055 601.99298096 C39.5313081 607.45668931 6.4696868 606.89426097 -21.61987305 601.44952393 C-22.67658203 601.25084717 -23.73329102 601.05217041 -24.82202148 600.84747314 C-47.28049714 596.52105684 -68.25734174 589.55896101 -89.18237305 580.44952393 C-89.84361176 580.16246582 -90.50485046 579.87540771 -91.18612671 579.57965088 C-100.92290352 575.32902125 -110.32582228 570.59483562 -119.61987305 565.44952393 C-120.24693146 565.10647217 -120.87398987 564.76342041 -121.52005005 564.40997314 C-125.55295867 562.16826525 -128.4055444 559.74627125 -131.61987305 556.44952393 C-133.57040402 555.01449042 -135.56678833 553.73867014 -137.61987305 552.44952393 C-138.27987305 552.77952393 -138.93987305 553.10952393 -139.61987305 553.44952393 C-141.10542688 552.5221782 -142.58314811 551.5822758 -144.05737305 550.63702393 C-144.88108398 550.11495361 -145.70479492 549.5928833 -146.5534668 549.05499268 C-148.61987305 547.44952393 -148.61987305 547.44952393 -149.61987305 544.44952393 C-150.60987305 544.77952393 -151.59987305 545.10952393 -152.61987305 545.44952393 C-153.60987305 543.96452393 -153.60987305 543.96452393 -154.61987305 542.44952393 C-155.60987305 542.11952393 -156.59987305 541.78952393 -157.61987305 541.44952393 C-157.94987305 540.78952393 -158.27987305 540.12952393 -158.61987305 539.44952393 C-159.36237305 539.16077393 -160.10487305 538.87202393 -160.86987305 538.57452393 C-165.11698939 536.83706724 -167.93316405 534.88834277 -169.93237305 530.69952393 C-170.15924805 529.95702393 -170.38612305 529.21452393 -170.61987305 528.44952393 C-171.93987305 528.44952393 -173.25987305 528.44952393 -174.61987305 528.44952393 C-176.9519043 526.91046143 -176.9519043 526.91046143 -179.43237305 524.82452393 C-180.7452832 523.72624268 -180.7452832 523.72624268 -182.0847168 522.60577393 C-182.92131836 521.89421143 -183.75791992 521.18264893 -184.61987305 520.44952393 C-185.30178711 519.90296143 -185.98370117 519.35639893 -186.6862793 518.79327393 C-190.50006985 515.69611356 -193.10428127 512.67571811 -195.61987305 508.44952393 C-194.98049805 508.77952393 -194.34112305 509.10952393 -193.68237305 509.44952393 C-191.85192738 510.52223618 -191.85192738 510.52223618 -190.61987305 510.44952393 C-191.2212207 509.88298096 -191.2212207 509.88298096 -191.8347168 509.30499268 C-196.34322164 504.93961497 -200.31680927 500.27329167 -204.24487305 495.38311768 C-206.59134617 492.48476025 -209.00752323 489.65740135 -211.43237305 486.82452393 C-219.98509328 476.55066804 -227.45942896 465.53165896 -234.43237305 454.13702393 C-234.90263916 453.38219727 -235.37290527 452.62737061 -235.85742188 451.84967041 C-237.86223222 448.58393706 -239.58216824 445.54589265 -240.9831543 441.96514893 C-242.89456382 437.30201981 -244.5756945 434.4249226 -249.26000977 432.1897583 C-253.64112457 430.47958928 -258.04266713 428.9694725 -262.55786133 427.65240479 C-272.52625028 424.6729591 -275.76098758 420.85561244 -280.7956543 412.01593018 C-281.85092337 410.01972379 -282.89634345 408.01828299 -283.93237305 406.01202393 C-284.46926758 405.01364502 -285.00616211 404.01526611 -285.55932617 402.9866333 C-288.49242612 397.36085143 -290.33937185 392.81007818 -290.61987305 386.44952393 C-285.47851039 386.96366019 -280.35798934 387.57808359 -275.24487305 388.32452393 C-273.74827148 388.53721924 -273.74827148 388.53721924 -272.22143555 388.75421143 C-269.45077691 389.49471779 -268.39059516 390.24515558 -266.61987305 392.44952393 C-265.6856366 389.43920649 -265.57537394 388.58302125 -266.61987305 385.44952393 C-266.28987305 384.78952393 -265.95987305 384.12952393 -265.61987305 383.44952393 C-266.60987305 383.11952393 -267.59987305 382.78952393 -268.61987305 382.44952393 C-268.68174805 381.56264893 -268.74362305 380.67577393 -268.80737305 379.76202393 C-270.06155506 374.64882034 -273.11092289 372.42195847 -277.43237305 369.63702393 C-290.03226251 360.99004096 -293.14378494 349.75256993 -296.93237305 335.63702393 C-297.33286865 334.15093628 -297.33286865 334.15093628 -297.74145508 332.63482666 C-299.07712018 327.42626035 -299.94236451 322.82688159 -299.61987305 317.44952393 C-294.50509845 317.91450343 -291.59034299 320.41328221 -287.61987305 323.44952393 C-286.62987305 318.00452393 -286.62987305 318.00452393 -285.61987305 312.44952393 C-285.28987305 312.44952393 -284.95987305 312.44952393 -284.61987305 312.44952393 C-284.57088867 313.18557861 -284.5219043 313.9216333 -284.47143555 314.67999268 C-284.35928711 316.14372314 -284.35928711 316.14372314 -284.24487305 317.63702393 C-284.17526367 318.59995361 -284.1056543 319.5628833 -284.03393555 320.55499268 C-283.60986446 323.51948963 -282.97451271 325.78171316 -281.61987305 328.44952393 C-280.62987305 329.10952393 -279.63987305 329.76952393 -278.61987305 330.44952393 C-279.17471914 316.99928929 -281.16190316 309.34406427 -288.75268555 298.27764893 C-298.28208176 283.84400278 -296.86896882 262.11126333 -296.61987305 245.44952393 C-295.62987305 245.44952393 -294.63987305 245.44952393 -293.61987305 245.44952393 C-291.7175293 247.49639893 -291.7175293 247.49639893 -289.68237305 250.19952393 C-287.15774202 253.52678331 -284.57967865 256.50825572 -281.61987305 259.44952393 C-280.62987305 260.93452393 -280.62987305 260.93452393 -279.61987305 262.44952393 C-279.27863724 260.45085706 -278.94730525 258.4504985 -278.61987305 256.44952393 C-278.43424805 255.33577393 -278.24862305 254.22202393 -278.05737305 253.07452393 C-277.12908629 245.38300505 -277.65573178 240.5812084 -280.61987305 233.57452393 C-286.77153433 217.44125609 -285.45130559 193.18577634 -278.61987305 177.44952393 C-275.54958804 180.10541464 -273.90356468 183.2751697 -271.99487305 186.82452393 C-271.38385742 187.9460083 -270.7728418 189.06749268 -270.14331055 190.22296143 C-268.80354452 193.06051717 -268.04749522 195.36370984 -267.61987305 198.44952393 C-266.95987305 198.44952393 -266.29987305 198.44952393 -265.61987305 198.44952393 C-264.57953508 195.12737803 -263.59172067 191.79230417 -262.61987305 188.44952393 C-262.38397461 187.69671143 -262.14807617 186.94389893 -261.9050293 186.16827393 C-260.42799321 180.83935943 -260.90861763 176.89555833 -262.07470703 171.53302002 C-263.87566909 161.346656 -262.22130199 152.06744793 -259.36987305 142.26202393 C-259.06952148 141.16438721 -258.76916992 140.06675049 -258.4597168 138.93585205 C-254.36626944 124.31266456 -254.36626944 124.31266456 -251.61987305 119.44952393 C-250.62987305 119.11952393 -249.63987305 118.78952393 -248.61987305 118.44952393 C-247.94537338 120.8433955 -247.28010663 123.23921614 -246.61987305 125.63702393 C-246.4290918 126.31055908 -246.23831055 126.98409424 -246.04174805 127.67803955 C-245.03728945 131.35507549 -244.38282563 134.63454212 -244.61987305 138.44952393 C-243.95987305 138.44952393 -243.29987305 138.44952393 -242.61987305 138.44952393 C-242.35174805 137.71604736 -242.08362305 136.9825708 -241.80737305 136.22686768 C-240.31438572 132.73504535 -238.25868507 129.90476373 -236.05737305 126.82843018 C-233.20045316 122.1005383 -232.4372831 117.78074633 -232.30737305 112.32452393 C-231.56532129 101.70839644 -226.62844124 93.25025055 -221.61987305 84.07452393 C-221.20487549 83.31309082 -220.78987793 82.55165771 -220.36230469 81.76715088 C-217.82072706 77.23386337 -215.07379356 73.3351845 -211.61987305 69.44952393 C-210.95987305 69.77952393 -210.29987305 70.10952393 -209.61987305 70.44952393 C-209.12487305 80.84452393 -209.12487305 80.84452393 -208.61987305 91.44952393 C-207.41331055 90.23135986 -206.20674805 89.0131958 -204.96362305 87.75811768 C-203.34917597 86.13428428 -201.73458496 84.51059398 -200.11987305 82.88702393 C-199.32838867 82.08716064 -198.5369043 81.28729736 -197.72143555 80.4631958 C-162.48622325 45.0835769 -118.60579842 21.01731174 -70.68237305 7.63702393 C-69.75739014 7.37131592 -68.83240723 7.10560791 -67.87939453 6.83184814 C-45.47836148 0.85548467 -23.02527602 -0.17932258 0 0 Z M-54.11987305 28.41827393 C-54.99603271 28.65554199 -55.87219238 28.89281006 -56.77490234 29.13726807 C-57.71374268 29.4053125 -58.65258301 29.67335693 -59.61987305 29.94952393 C-60.60318604 30.22723633 -61.58649902 30.50494873 -62.59960938 30.79107666 C-65.61285955 31.65674174 -68.61765127 32.54640025 -71.61987305 33.44952393 C-72.88323486 33.82875 -72.88323486 33.82875 -74.17211914 34.21563721 C-101.34176505 42.57850846 -137.16575295 57.56641501 -155.61987305 80.44952393 C-157.07057269 83.18120728 -157.07057269 83.18120728 -157.61987305 85.44952393 C-156.60924805 84.66577393 -155.59862305 83.88202393 -154.55737305 83.07452393 C-140.63034595 72.69563025 -125.70253641 64.02259957 -110.61987305 55.44952393 C-109.90299316 55.03927979 -109.18611328 54.62903564 -108.44750977 54.20635986 C-88.59648579 42.91701754 -67.32443662 35.30412446 -45.61987305 28.44952393 C-48.8470499 27.3970242 -50.86396963 27.52561374 -54.11987305 28.41827393 Z M-144.53393555 83.48077393 C-145.27595215 83.98157471 -146.01796875 84.48237549 -146.7824707 84.99835205 C-148.87499668 86.49728961 -148.87499668 86.49728961 -150.61987305 89.44952393 C-147.46355503 87.9354991 -144.5108591 86.19989623 -141.53393555 84.35968018 C-81.47430272 47.54036695 -14.48330358 30.45036765 55.47363281 46.13555908 C92.30290358 55.05754398 126.64780589 70.89722946 156.38012695 94.44952393 C157.33918945 95.19589111 158.29825195 95.9422583 159.28637695 96.71124268 C176.41486451 110.33846586 191.23119282 126.00171317 204.38012695 143.44952393 C204.79617188 143.99802002 205.2122168 144.54651611 205.64086914 145.1116333 C239.62453441 190.22555531 258.25193831 245.25486891 258.63012695 301.69952393 C258.63947266 302.65222168 258.64881836 303.60491943 258.65844727 304.58648682 C258.63257894 310.19742514 258.13035283 315.10024201 256.38012695 320.44952393 C255.72012695 320.77952393 255.06012695 321.10952393 254.38012695 321.44952393 C254.22979004 319.67629761 254.22979004 319.67629761 254.07641602 317.86724854 C247.88009092 245.41046039 229.42572553 177.9202159 177.38012695 124.44952393 C176.73527344 123.77888916 176.09041992 123.10825439 175.42602539 122.41729736 C166.30197996 112.95136733 157.04339381 104.15585647 146.38012695 96.44952393 C145.31407227 95.6735083 144.24801758 94.89749268 143.1496582 94.09796143 C130.25236678 84.95517993 116.70702382 77.11665954 102.38012695 70.44952393 C101.6746875 70.12097412 100.96924805 69.79242432 100.24243164 69.45391846 C45.78275612 44.490188 -19.61025455 41.44631776 -76.61987305 60.44952393 C-76.91466553 61.07214111 -77.20945801 61.6947583 -77.51318359 62.33624268 C-78.9790214 65.13533645 -80.53935349 65.81440611 -83.3269043 67.26202393 C-84.29563477 67.77394287 -85.26436523 68.28586182 -86.26245117 68.81329346 C-87.30852539 69.35324951 -88.35459961 69.89320557 -89.43237305 70.44952393 C-91.62734156 71.61177882 -93.82133458 72.77587763 -96.0144043 73.94171143 C-97.12251465 74.5279126 -98.230625 75.11411377 -99.37231445 75.71807861 C-124.82477837 89.2881338 -146.0227284 104.72930909 -166.43237305 125.01202393 C-166.96853241 125.54273499 -167.50469177 126.07344604 -168.05709839 126.62023926 C-175.04788495 133.55815151 -181.53475832 140.68669163 -187.61987305 148.44952393 C-188.19294189 149.1685791 -188.76601074 149.88763428 -189.35644531 150.628479 C-229.11586298 200.75411334 -244.1924251 260.96821327 -237.6809082 324.72418213 C-235.12870241 346.57457654 -235.12870241 346.57457654 -228.61987305 367.44952393 C-227.62987305 368.10952393 -226.63987305 368.76952393 -225.61987305 369.44952393 C-226.2198931 363.82012227 -227.21230906 358.36423269 -228.38476562 352.82696533 C-238.51918489 304.76296454 -236.97576405 248.16130592 -214.61987305 203.44952393 C-215.89549981 210.92676978 -217.99580166 217.90308321 -220.43237305 225.07452393 C-229.85494631 253.76316139 -232.02532215 281.49619159 -231.61987305 311.44952393 C-230.04713736 308.60703852 -230.04713736 308.60703852 -229.61987305 305.44952393 C-225.68856505 309.16242593 -222.57190038 313.07527044 -219.49487305 317.51202393 C-218.63846989 318.73233413 -217.78170836 319.95239291 -216.92456055 321.17218018 C-216.52720703 321.743396 -216.12985352 322.31461182 -215.72045898 322.90313721 C-214.81400064 324.17676346 -213.85264771 325.41113595 -212.87768555 326.63311768 C-210.58710015 329.94095062 -210.48598462 333.39066552 -210.3737793 337.32843018 C-210.32447266 338.70998291 -210.32447266 338.70998291 -210.27416992 340.1194458 C-210.21285196 342.05161389 -210.1555758 343.98391438 -210.10229492 345.9163208 C-210.05105469 347.29593994 -210.05105469 347.29593994 -209.9987793 348.70343018 C-209.97372314 349.5420459 -209.94866699 350.38066162 -209.92285156 351.24468994 C-209.74381785 353.73622584 -209.74381785 353.73622584 -207.61987305 356.44952393 C-207.45382568 355.83955566 -207.28777832 355.2295874 -207.11669922 354.60113525 C-206.35468419 351.81923856 -205.5811503 349.04067086 -204.80737305 346.26202393 C-204.54633789 345.30231689 -204.28530273 344.34260986 -204.01635742 343.3538208 C-199.82924339 328.41461146 -188.96753439 321.69402114 -176.61987305 313.44952393 C-177.22789305 320.34277394 -178.48860608 326.82257776 -180.24487305 333.51202393 C-180.46788086 334.45368408 -180.69088867 335.39534424 -180.9206543 336.36553955 C-184.40234037 349.60147313 -196.13162251 358.72469434 -207.61987305 365.44952393 C-208.94509255 365.81377956 -210.27783122 366.15319197 -211.61987305 366.44952393 C-217.11612736 360.45517157 -221.92411048 354.08457545 -226.61987305 347.44952393 C-228.3709159 350.95160962 -226.57318225 354.66900627 -225.61987305 358.32452393 C-225.39638184 359.18279785 -225.17289063 360.04107178 -224.94262695 360.925354 C-223.16657056 367.32432765 -220.76068386 372.36817155 -217.1862793 377.97296143 C-212.37951372 385.57268555 -210.83069639 394.8306796 -208.61987305 403.44952393 C-208.28987305 403.44952393 -207.95987305 403.44952393 -207.61987305 403.44952393 C-207.54994141 402.69856445 -207.48000977 401.94760498 -207.40795898 401.17388916 C-207.07882071 397.74307243 -206.72458402 394.31528718 -206.36987305 390.88702393 C-206.26030273 389.70559814 -206.15073242 388.52417236 -206.0378418 387.3069458 C-204.93450482 376.94138521 -201.50468925 371.24068649 -195.05737305 363.26202393 C-194.09740948 362.0604631 -193.1377652 360.85864712 -192.1784668 359.65655518 C-191.73229004 359.10306396 -191.28611328 358.54957275 -190.82641602 357.97930908 C-189.81134536 356.69229315 -188.85122413 355.36220963 -187.9050293 354.02374268 C-187.48092773 353.50425049 -187.05682617 352.9847583 -186.61987305 352.44952393 C-185.95987305 352.44952393 -185.29987305 352.44952393 -184.61987305 352.44952393 C-184.12573988 369.27750331 -183.9933196 385.34366052 -194.4284668 399.20343018 C-194.93063721 399.87277588 -195.43280762 400.54212158 -195.95019531 401.23175049 C-196.96433576 402.56470322 -197.99700788 403.8837973 -199.04931641 405.18682861 C-201.93787652 408.78141954 -201.93787652 408.78141954 -202.62768555 413.21124268 C-201.5857645 415.52527662 -200.56631218 416.84159595 -198.61987305 418.44952393 C-194.10778068 409.52610553 -189.65350888 400.60277447 -185.61987305 391.44952393 C-185.4497168 391.9831958 -185.27956055 392.51686768 -185.10424805 393.06671143 C-184.30089692 395.53658884 -183.4640809 397.99331574 -182.61987305 400.44952393 C-182.34143555 401.28870361 -182.06299805 402.1278833 -181.77612305 402.99249268 C-179.82906975 408.40563654 -177.47202075 412.29831566 -173.4987793 416.46514893 C-172.87874023 417.11999268 -172.25870117 417.77483643 -171.61987305 418.44952393 C-170.7690918 419.3235083 -169.91831055 420.19749268 -169.04174805 421.09796143 C-165.89744349 424.9062028 -165.18474319 429.06165743 -164.30737305 433.82452393 C-164.13915039 434.65596924 -163.97092773 435.48741455 -163.79760742 436.34405518 C-163.38887704 438.3760291 -163.002101 440.41239842 -162.61987305 442.44952393 C-162.28987305 442.44952393 -161.95987305 442.44952393 -161.61987305 442.44952393 C-161.64831299 441.87210449 -161.67675293 441.29468506 -161.70605469 440.69976807 C-161.98757595 431.31851336 -162.02271394 422.64144614 -155.7019043 415.20343018 C-151.61226593 410.97505713 -147.22907473 407.10184886 -142.61987305 403.44952393 C-141.99501222 428.98195383 -141.99501222 428.98195383 -149.88134766 438.02178955 C-153.70041603 441.84404011 -157.27915887 445.32896927 -162.19018555 447.67999268 C-166.11138816 447.3080458 -168.42228941 444.71924256 -171.18237305 442.13702393 C-175.95276244 437.6416934 -175.95276244 437.6416934 -181.61987305 434.44952393 C-182.48834136 436.19247071 -183.33917932 437.94421055 -184.18237305 439.69952393 C-184.65803711 440.67405518 -185.13370117 441.64858643 -185.6237793 442.65264893 C-186.75281794 445.30622672 -186.75281794 445.30622672 -186.5847168 447.68780518 C-185.14208613 450.32192028 -183.44976447 450.53412609 -180.61987305 451.38702393 C-175.83066453 452.95428773 -171.71032533 454.90697391 -167.3972168 457.49639893 C-165.66224346 458.60705646 -165.66224346 458.60705646 -163.61987305 458.44952393 C-160.95320638 463.78285726 -158.28653971 469.11619059 -155.61987305 474.44952393 C-154.45573323 470.4828253 -155.00588083 467.54280538 -155.61987305 463.44952393 C-156.6427591 453.39114436 -151.76005707 443.31326837 -145.61987305 435.44952393 C-144.95987305 435.11952393 -144.29987305 434.78952393 -143.61987305 434.44952393 C-143.11223439 437.13577847 -142.61360108 439.82320776 -142.11987305 442.51202393 C-141.97678711 443.26419189 -141.83370117 444.01635986 -141.6862793 444.7913208 C-139.19109432 458.5148382 -143.61233026 467.75159916 -150.61987305 479.44952393 C-151.61065729 480.78971957 -152.60931026 482.12417845 -153.61987305 483.44952393 C-131.68289347 503.3932301 -102.69083647 518.09253612 -74.61987305 527.44952393 C-80.56296899 526.83832597 -85.82652204 525.23427409 -91.43237305 523.19952393 C-92.37290527 522.85816406 -93.3134375 522.5168042 -94.2824707 522.1651001 C-108.04845076 516.98178031 -121.84472854 510.48927558 -134.25268555 502.55499268 C-137.24062471 500.27279867 -137.24062471 500.27279867 -139.61987305 500.44952393 C-136.07495452 511.96500462 -123.53807793 522.49860099 -113.61987305 528.44952393 C-113.04382324 528.79644287 -112.46777344 529.14336182 -111.87426758 529.50079346 C-67.50916596 555.73176086 -9.07247012 564.27176296 41.38012695 554.44952393 C42.4057373 554.25084717 43.43134766 554.05217041 44.48803711 553.84747314 C87.23761492 545.2872982 126.28931502 526.89289972 158.85913086 497.80743408 C160.24722487 496.56817583 161.64706797 495.34210988 163.0480957 494.11749268 C171.92692115 486.28323493 180.49455871 477.98367681 188.07543945 468.87530518 C189.38012695 467.44952393 189.38012695 467.44952393 191.38012695 466.44952393 C187.68462974 473.97051072 182.84536496 480.13034248 177.38012695 486.44952393 C176.67887695 487.26292236 175.97762695 488.0763208 175.25512695 488.91436768 C164.90458891 500.6538566 153.95757927 511.13844434 141.38012695 520.44952393 C140.80649414 520.87862061 140.23286133 521.30771729 139.6418457 521.74981689 C130.90415911 528.26116856 121.84336666 534.0529063 112.38012695 539.44952393 C111.78651367 539.79225342 111.19290039 540.13498291 110.58129883 540.48809814 C71.24848058 563.03646733 27.88664608 568.20352373 -16.61987305 569.44952393 C-16.61987305 569.77952393 -16.61987305 570.10952393 -16.61987305 570.44952393 C44.26776293 579.85196247 103.89943945 560.27875254 153.66430664 524.82208252 C158.66732798 521.15327294 163.54579303 517.3369901 168.38012695 513.44952393 C168.95956055 512.98723389 169.53899414 512.52494385 170.13598633 512.04864502 C177.70532751 505.97231867 184.6233264 499.39068946 191.35717773 492.39923096 C192.25218994 491.47859863 192.25218994 491.47859863 193.1652832 490.53936768 C193.69001221 489.99143555 194.21474121 489.44350342 194.75537109 488.87896729 C196.51598132 487.33000067 198.24788028 486.40583757 200.38012695 485.44952393 C196.09703615 491.64633615 191.76589838 497.34335337 186.3137207 502.55108643 C184.37642055 504.45316294 182.63160916 506.4388409 180.88012695 508.51202393 C177.36102184 512.58345495 173.49243948 515.99159949 169.38012695 519.44952393 C168.45586914 520.2616333 167.53161133 521.07374268 166.5793457 521.91046143 C121.11241825 561.65777699 63.21420538 582.63906609 3.22631836 582.63482666 C-0.21602897 582.63700567 -3.65805119 582.65519258 -7.1003418 582.6741333 C-22.44475827 582.7140474 -37.66552016 582.4641951 -52.64785767 578.86009216 C-55.00293343 578.3697718 -57.22204701 578.29482547 -59.61987305 578.44952393 C-56.74495921 580.01088535 -54.09190493 580.92906472 -50.90112305 581.63311768 C-49.98000732 581.83703125 -49.0588916 582.04094482 -48.10986328 582.2510376 C-6.62174738 591.07577361 32.69952271 591.7186982 74.38012695 584.44952393 C74.38012695 583.78952393 74.38012695 583.12952393 74.38012695 582.44952393 C76.36012695 582.44952393 78.34012695 582.44952393 80.38012695 582.44952393 C80.38012695 582.11952393 80.38012695 581.78952393 80.38012695 581.44952393 C83.68012695 581.11952393 86.98012695 580.78952393 90.38012695 580.44952393 C90.38012695 579.45952393 90.38012695 578.46952393 90.38012695 577.44952393 C91.66790039 577.03573486 91.66790039 577.03573486 92.98168945 576.61358643 C96.30590733 575.47494628 99.51867322 574.19102661 102.75512695 572.82452393 C104.34454102 572.15550049 104.34454102 572.15550049 105.96606445 571.47296143 C106.76270508 571.13522705 107.5593457 570.79749268 108.38012695 570.44952393 C108.38012695 571.10952393 108.38012695 571.76952393 108.38012695 572.44952393 C107.43137695 572.73827393 106.48262695 573.02702393 105.50512695 573.32452393 C102.32801117 574.21777502 102.32801117 574.21777502 100.38012695 576.44952393 C106.4181989 575.87398864 111.52574801 573.44350687 117.00512695 571.01202393 C118.01986084 570.56463867 119.03459473 570.11725342 120.08007812 569.65631104 C142.82136888 559.53272295 163.79968423 547.8748783 183.38012695 532.44952393 C184.3649707 531.67866455 185.34981445 530.90780518 186.36450195 530.11358643 C201.37377985 518.09748823 215.54741341 504.60603341 227.38012695 489.44952393 C228.10304932 488.54121826 228.10304932 488.54121826 228.84057617 487.61456299 C265.85145712 441.08857554 289.00822783 382.21660739 290.38012695 322.44952393 C290.40059082 321.68607666 290.42105469 320.92262939 290.44213867 320.13604736 C292.2662211 243.70548614 263.15830712 174.51426451 211.63012695 119.01202393 C211.02821533 118.3614502 210.42630371 117.71087646 209.80615234 117.04058838 C205.57217743 112.5356576 201.0765486 108.46453444 196.38012695 104.44952393 C195.30803975 103.50100522 194.23761828 102.55059911 193.16918945 101.59796143 C180.54327216 90.47272232 166.52812199 78.97433964 151.38012695 71.44952393 C150.72012695 71.77952393 150.06012695 72.10952393 149.38012695 72.44952393 C149.85208496 72.78572754 150.32404297 73.12193115 150.81030273 73.46832275 C166.08838148 84.37251004 180.87089906 95.38786846 194.38012695 108.44952393 C195.03335937 109.08084229 195.6865918 109.71216064 196.35961914 110.36260986 C204.55830089 118.32979942 212.44189942 126.33847069 219.38012695 135.44952393 C220.05156738 136.31432373 220.05156738 136.31432373 220.73657227 137.19659424 C269.19454191 199.61976928 292.6219754 277.48894437 283.03930664 356.25079346 C281.89282512 364.78939616 280.47580991 373.17018225 277.9309082 381.41827393 C277.24927512 383.58133158 277.24927512 383.58133158 277.38012695 386.44952393 C276.39012695 386.44952393 275.40012695 386.44952393 274.38012695 386.44952393 C274.4908252 385.89417969 274.60152344 385.33883545 274.71557617 384.7666626 C286.8790655 322.57591878 280.59100643 259.64944195 255.38012695 201.44952393 C255.0454541 200.66577393 254.71078125 199.88202393 254.3659668 199.07452393 C244.46216727 176.09729872 230.43452684 154.5947709 214.38012695 135.44952393 C213.9742334 134.95484619 213.56833984 134.46016846 213.15014648 133.95050049 C201.58113836 119.8602054 188.87747807 106.54722666 174.38012695 95.44952393 C173.14208607 94.46126919 171.90519408 93.4715742 170.66918945 92.48077393 C88.30158833 27.12955918 -28.43243918 16.97831622 -144.53393555 83.48077393 Z M144.38012695 68.44952393 C145.37012695 69.43952393 146.36012695 70.42952393 147.38012695 71.44952393 C148.04012695 71.11952393 148.70012695 70.78952393 149.38012695 70.44952393 C146.90512695 69.45952393 146.90512695 69.45952393 144.38012695 68.44952393 Z M-152.61987305 89.44952393 C-152.94987305 90.10952393 -153.27987305 90.76952393 -153.61987305 91.44952393 C-152.62987305 91.11952393 -151.63987305 90.78952393 -150.61987305 90.44952393 C-151.27987305 90.11952393 -151.93987305 89.78952393 -152.61987305 89.44952393 Z M-195.68237305 118.94952393 C-196.41584961 119.59921143 -197.14932617 120.24889893 -197.9050293 120.91827393 C-198.47092773 121.42358643 -199.03682617 121.92889893 -199.61987305 122.44952393 C-199.28987305 123.43952393 -198.95987305 124.42952393 -198.61987305 125.44952393 C-193.32797756 121.42743784 -193.32797756 121.42743784 -190.61987305 115.44952393 C-192.61911577 115.44952393 -194.27979528 117.70278813 -195.68237305 118.94952393 Z M-233.61987305 128.44952393 C-237.22872442 132.70667195 -240.56015544 137.23964997 -242.61987305 142.44952393 C-242.28987305 143.43952393 -241.95987305 144.42952393 -241.61987305 145.44952393 C-240.48663842 143.74664194 -239.3636507 142.0369387 -238.24487305 140.32452393 C-237.61838867 139.3731958 -236.9919043 138.42186768 -236.34643555 137.44171143 C-234.64306236 134.48971174 -233.57793895 131.71081899 -232.61987305 128.44952393 C-232.94987305 128.44952393 -233.27987305 128.44952393 -233.61987305 128.44952393 Z M-233.61987305 138.44952393 C-234.60545753 140.02887032 -235.58309846 141.61317566 -236.55737305 143.19952393 C-237.10264648 144.08124268 -237.64791992 144.96296143 -238.2097168 145.87139893 C-239.44703017 148.13352309 -240.15577818 149.93518717 -240.61987305 152.44952393 C-238.1300477 150.17206603 -236.51618308 147.82617154 -234.86987305 144.88702393 C-234.4212793 144.10198486 -233.97268555 143.3169458 -233.51049805 142.50811768 C-233.2165918 141.82878174 -232.92268555 141.1494458 -232.61987305 140.44952393 C-232.94987305 139.78952393 -233.27987305 139.12952393 -233.61987305 138.44952393 Z M-233.61987305 147.44952393 C-239.48742657 158.59243429 -239.48742657 158.59243429 -243.61987305 170.44952393 C-243.28987305 171.43952393 -242.95987305 172.42952393 -242.61987305 173.44952393 C-234.99500687 161.13482138 -234.99500687 161.13482138 -231.61987305 147.44952393 C-232.27987305 147.44952393 -232.93987305 147.44952393 -233.61987305 147.44952393 Z M-222.11987305 156.63702393 C-224.63702532 159.46882024 -225.30389653 160.76313122 -225.61987305 164.44952393 C-222.22569539 161.32330767 -220.01360125 158.88411366 -218.61987305 154.44952393 C-220.04809703 154.33977316 -220.04809703 154.33977316 -222.11987305 156.63702393 Z M-244.61987305 173.44952393 C-243.61987305 176.44952393 -243.61987305 176.44952393 -243.61987305 176.44952393 Z M-259.61987305 191.44952393 C-260.32075461 193.19420765 -261.00511313 194.94553554 -261.68237305 196.69952393 C-262.06522461 197.67405518 -262.44807617 198.64858643 -262.8425293 199.65264893 C-263.63101092 202.48959787 -263.64425117 203.74361945 -262.61987305 206.44952393 C-261.92139041 204.51595611 -261.23642491 202.57750095 -260.55737305 200.63702393 C-260.17452148 199.55807861 -259.79166992 198.4791333 -259.3972168 197.36749268 C-258.32504616 194.41770164 -258.32504616 194.41770164 -259.61987305 191.44952393 Z M-256.61987305 197.44952393 C-259.36944308 203.11085773 -260.50264449 208.42492888 -261.36987305 214.63702393 C-261.50780273 215.52583252 -261.64573242 216.41464111 -261.7878418 217.3303833 C-262.60823442 222.93112233 -262.60823442 222.93112233 -261.61987305 228.44952393 C-260.60337066 224.78723163 -259.60972265 221.1191015 -258.61987305 217.44952393 C-258.33370117 216.41956299 -258.0475293 215.38960205 -257.75268555 214.32843018 C-256.19751322 208.51504789 -255.27270642 203.46707873 -255.61987305 197.44952393 C-255.94987305 197.44952393 -256.27987305 197.44952393 -256.61987305 197.44952393 Z M-231.11987305 198.69952393 C-232.7738286 200.62913874 -233.19319364 201.97478337 -233.61987305 204.44952393 C-231.58745578 203.80972544 -231.58745578 203.80972544 -229.61987305 202.44952393 C-228.80816076 199.89432471 -228.80816076 199.89432471 -228.61987305 197.44952393 C-229.81726324 197.34282653 -229.81726324 197.34282653 -231.11987305 198.69952393 Z M-242.61987305 201.44952393 C-243.31686856 202.9033429 -244.00221171 204.36275345 -244.68237305 205.82452393 C-245.06522461 206.6366333 -245.44807617 207.44874268 -245.8425293 208.28546143 C-246.22731445 209.35667236 -246.22731445 209.35667236 -246.61987305 210.44952393 C-246.28987305 211.10952393 -245.95987305 211.76952393 -245.61987305 212.44952393 C-242.79425678 208.65260206 -241.05348396 206.26383113 -241.61987305 201.44952393 C-241.94987305 201.44952393 -242.27987305 201.44952393 -242.61987305 201.44952393 Z M-242.61987305 245.44952393 C-243.60987305 246.93452393 -243.60987305 246.93452393 -244.61987305 248.44952393 C-244.28987305 249.43952393 -243.95987305 250.42952393 -243.61987305 251.44952393 C-241.27699886 248.77704759 -241.27699886 248.77704759 -240.61987305 245.44952393 C-241.27987305 245.44952393 -241.93987305 245.44952393 -242.61987305 245.44952393 Z M-274.61987305 250.44952393 C-274.61987305 252.42952393 -274.61987305 254.40952393 -274.61987305 256.44952393 C-274.28987305 256.44952393 -273.95987305 256.44952393 -273.61987305 256.44952393 C-273.28987305 260.40952393 -272.95987305 264.36952393 -272.61987305 268.44952393 C-271.29987305 267.12952393 -269.97987305 265.80952393 -268.61987305 264.44952393 C-268.70837959 258.96211853 -269.85831561 255.25223251 -272.61987305 250.44952393 C-273.27987305 250.44952393 -273.93987305 250.44952393 -274.61987305 250.44952393 Z M-256.61987305 255.44952393 C-256.97049805 256.68702393 -257.32112305 257.92452393 -257.68237305 259.19952393 C-257.87959961 259.89561768 -258.07682617 260.59171143 -258.2800293 261.30889893 C-258.65473464 263.66911188 -258.34640628 265.19371444 -257.61987305 267.44952393 C-256.32743769 263.32988623 -255.35734679 259.7812071 -255.61987305 255.44952393 C-255.94987305 255.44952393 -256.27987305 255.44952393 -256.61987305 255.44952393 Z M-273.61987305 269.44952393 C-272.61987305 271.44952393 -272.61987305 271.44952393 -272.61987305 271.44952393 Z M-276.61987305 316.44952393 C-276.61987305 318.42952393 -276.61987305 320.40952393 -276.61987305 322.44952393 C-275.95987305 321.78952393 -275.29987305 321.12952393 -274.61987305 320.44952393 C-274.93839075 318.34131596 -274.93839075 318.34131596 -275.61987305 316.44952393 C-275.94987305 316.44952393 -276.27987305 316.44952393 -276.61987305 316.44952393 Z M-273.61987305 328.44952393 C-272.61987305 330.44952393 -272.61987305 330.44952393 -272.61987305 330.44952393 Z M-242.61987305 344.44952393 C-242.61987305 346.09952393 -242.61987305 347.74952393 -242.61987305 349.44952393 C-241.95987305 348.12952393 -241.29987305 346.80952393 -240.61987305 345.44952393 C-241.27987305 345.11952393 -241.93987305 344.78952393 -242.61987305 344.44952393 Z M-255.61987305 393.44952393 C-254.61987305 395.44952393 -254.61987305 395.44952393 -254.61987305 395.44952393 Z M-254.61987305 396.44952393 C-253.61987305 398.44952393 -253.61987305 398.44952393 -253.61987305 398.44952393 Z M-253.61987305 399.44952393 C-252.61987305 401.44952393 -252.61987305 401.44952393 -252.61987305 401.44952393 Z M-227.61987305 400.44952393 C-222.6293156 413.74308643 -222.6293156 413.74308643 -213.61987305 424.44952393 C-212.62987305 424.77952393 -211.63987305 425.10952393 -210.61987305 425.44952393 C-212.01817588 420.75266056 -213.99844654 416.61774741 -216.43237305 412.38702393 C-216.76301758 411.78825439 -217.09366211 411.18948486 -217.43432617 410.5725708 C-219.69842561 406.60496469 -222.17991354 403.45735629 -225.61987305 400.44952393 C-226.27987305 400.44952393 -226.93987305 400.44952393 -227.61987305 400.44952393 Z M-208.61987305 414.44952393 C-207.1867917 418.4085921 -205.28845355 421.73670574 -202.99487305 425.26202393 C-202.36323242 426.23784424 -201.7315918 427.21366455 -201.08081055 428.21905518 C-200.59870117 428.95510986 -200.1165918 429.69116455 -199.61987305 430.44952393 C-198.33033701 428.42405343 -198.33033701 428.42405343 -199.29174805 425.95343018 C-199.6475293 424.98276611 -200.00331055 424.01210205 -200.36987305 423.01202393 C-200.7153418 422.04393799 -201.06081055 421.07585205 -201.41674805 420.07843018 C-202.57334344 417.55119414 -203.40415665 416.10012074 -205.61987305 414.44952393 C-206.60987305 414.44952393 -207.59987305 414.44952393 -208.61987305 414.44952393 Z M-201.61987305 438.44952393 C-200.61987305 440.44952393 -200.61987305 440.44952393 -200.61987305 440.44952393 Z M-200.61987305 440.44952393 C-200.01803556 442.46997835 -199.34681209 444.47063432 -198.61987305 446.44952393 C-197.95987305 446.77952393 -197.29987305 447.10952393 -196.61987305 447.44952393 C-197.22171054 445.4290695 -197.89293401 443.42841353 -198.61987305 441.44952393 C-199.27987305 441.11952393 -199.93987305 440.78952393 -200.61987305 440.44952393 Z M-196.61987305 447.44952393 C-195.61987305 449.44952393 -195.61987305 449.44952393 -195.61987305 449.44952393 Z M-191.61987305 455.44952393 C-192.71375855 459.03913474 -192.71375855 459.03913474 -191.57299805 462.48468018 C-191.0109668 463.15370361 -190.44893555 463.82272705 -189.86987305 464.51202393 C-188.87987305 465.69344971 -188.87987305 465.69344971 -187.86987305 466.89874268 C-187.12737305 467.74050049 -186.38487305 468.5822583 -185.61987305 469.44952393 C-184.50612305 470.72762939 -184.50612305 470.72762939 -183.36987305 472.03155518 C-170.73043067 486.1521822 -157.43307026 500.83583952 -141.61987305 511.44952393 C-140.95987305 511.44952393 -140.29987305 511.44952393 -139.61987305 511.44952393 C-143.93386308 497.65289542 -151.58461916 490.09793919 -162.61987305 481.44952393 C-171.63490436 474.33610078 -179.42512921 466.78910269 -186.55737305 457.76202393 C-187.23799805 456.99889893 -187.91862305 456.23577393 -188.61987305 455.44952393 C-189.60987305 455.44952393 -190.59987305 455.44952393 -191.61987305 455.44952393 Z M-179.61987305 520.44952393 C-179.28987305 521.43952393 -178.95987305 522.42952393 -178.61987305 523.44952393 C-177.95987305 523.11952393 -177.29987305 522.78952393 -176.61987305 522.44952393 C-177.60987305 521.78952393 -178.59987305 521.12952393 -179.61987305 520.44952393 Z M-66.61987305 576.44952393 C-63.9043815 578.75624308 -63.9043815 578.75624308 -61.43237305 578.07452393 C-60.83424805 577.86827393 -60.23612305 577.66202393 -59.61987305 577.44952393 C-61.92987305 577.11952393 -64.23987305 576.78952393 -66.61987305 576.44952393 Z " fill="#F9C734" transform="translate(299.619873046875,-0.44952392578125)"/>
<path d="M0 0 C0.66 0.33 1.32 0.66 2 1 C2.50244141 2.92675781 2.50244141 2.92675781 2.8515625 5.453125 C2.98119385 6.37601318 3.1108252 7.29890137 3.24438477 8.24975586 C5.32538213 24.65346117 5.94203379 35.83224734 -1 51 C-2.01095805 53.32878363 -3.00533727 55.66418543 -4 58 C-3.60731934 57.56131592 -3.21463867 57.12263184 -2.81005859 56.6706543 C-1.00761146 54.66772928 0.80846208 52.6776507 2.625 50.6875 C3.24246094 49.99720703 3.85992187 49.30691406 4.49609375 48.59570312 C11.69554822 40.75208693 18.5682136 38.9811518 29 38 C33.67305709 37.8569943 38.32686876 37.87388851 43 38 C41.5632102 42.57924236 38.95412752 45.54940425 35.6875 48.9375 C34.73170101 49.94531526 33.77726862 50.95442836 32.82421875 51.96484375 C32.34903809 52.4635498 31.87385742 52.96225586 31.38427734 53.47607422 C30.03754525 54.95866712 28.80678028 56.54405331 27.58203125 58.12890625 C22.46589186 63.81780557 17.29134062 65.58705568 9.8125 66.25 C8.79446289 66.36601562 8.79446289 66.36601562 7.75585938 66.484375 C1.51019655 67.1314742 -4.7274155 67.07143722 -11 67 C-11.68290834 63.08599074 -12.3432233 59.16847178 -13 55.25 C-13.19078125 54.15816406 -13.3815625 53.06632812 -13.578125 51.94140625 C-16.87045685 32.0698319 -12.3814108 18.79463754 -2 2 C-1.34 1.34 -0.68 0.68 0 0 Z " fill="#F9C734" transform="translate(122,210)"/>
<path d="M0 0 C3 1 3 1 4.3503418 3.48095703 C7.12451306 10.22031029 7.12451306 10.22031029 7.92602539 12.2265625 C8.67902617 14.10387385 9.4561331 15.96979201 10.23632812 17.8359375 C10.71908203 19.02703125 11.20183594 20.218125 11.69921875 21.4453125 C12.14096436 22.53344238 12.58270996 23.62157227 13.0378418 24.74267578 C14.49682278 29.68196132 14.40551557 34.29418021 13.125 39.26171875 C12.94453125 39.98810547 12.7640625 40.71449219 12.578125 41.46289062 C12.38734375 42.19701172 12.1965625 42.93113281 12 43.6875 C10.930563 47.867698 10 51.64482858 10 56 C10.59167969 54.83082031 11.18335937 53.66164063 11.79296875 52.45703125 C12.59064696 50.90859707 13.38885201 49.36043421 14.1875 47.8125 C14.57486328 47.04357422 14.96222656 46.27464844 15.36132812 45.48242188 C19.35709887 37.78808647 23.94364316 33.59674009 31.6875 29.875 C32.74227539 29.35679687 32.74227539 29.35679687 33.81835938 28.828125 C39.06209118 26.3095957 44.31873256 24.31106172 50 23 C50.495 23.99 50.495 23.99 51 25 C47.50629935 35.30928061 40.14418869 51.83699508 30.390625 57.1328125 C29.0164889 57.80935077 27.63604136 58.47319988 26.25 59.125 C25.57195312 59.45886719 24.89390625 59.79273438 24.1953125 60.13671875 C9.82564199 67.10300388 9.82564199 67.10300388 5 66 C-3.58766965 53.63931107 -8.53067834 36.76229033 -6 22 C-2.25170999 4.50341997 -2.25170999 4.50341997 0 0 Z M8 57 C9 59 9 59 9 59 Z " fill="#F9C734" transform="translate(90,254)"/>
<path d="M0 0 C-0.1108253 4.00052291 -0.24122689 8.00018388 -0.375 12 C-0.42140625 13.68802734 -0.42140625 13.68802734 -0.46875 15.41015625 C-1.01149007 30.87824837 -6.41061829 40.76688688 -17 52 C-13.47920489 50.82640163 -10.61020811 48.9723271 -7.5 47 C-1.04744773 42.90813759 3.58570112 40.96686338 11.39257812 42.45654297 C14.02422477 43.07531114 16.6370412 43.74414909 19.25 44.4375 C20.1471875 44.66759766 21.044375 44.89769531 21.96875 45.13476562 C25.35057231 46.00806555 28.68545285 46.89515095 32 48 C30.84484147 51.4654756 30.13235213 51.86580873 27.17578125 53.8125 C26.00305664 54.58980469 26.00305664 54.58980469 24.80664062 55.3828125 C23.98357422 55.91648438 23.16050781 56.45015625 22.3125 57 C21.50876953 57.53367188 20.70503906 58.06734375 19.87695312 58.6171875 C10.72027078 64.63678898 4.51561378 67.67904345 -6.55566406 65.49609375 C-12.73875128 64.13773676 -18.87627168 62.60320418 -25 61 C-25.47300976 40.00362238 -25.0462448 22.91109418 -9.87133789 6.91870117 C-8.59140394 5.60216541 -7.2963272 4.3003973 -6 3 C-5.45730469 2.39285156 -4.91460937 1.78570312 -4.35546875 1.16015625 C-3 0 -3 0 0 0 Z " fill="#F9C734" transform="translate(162,179)"/>
<path d="M0 0 C3.99469303 5.99203955 1.93482363 14.36163807 0.6796875 21.14453125 C-1.29461599 29.43887521 -5.78795066 34.33075109 -12 40 C-10.41579871 39.37720331 -8.83267469 38.75166599 -7.25 38.125 C-6.36828125 37.77695312 -5.4865625 37.42890625 -4.578125 37.0703125 C-2.03964291 36.06597794 -2.03964291 36.06597794 0.12109375 34.86328125 C7.08719078 31.66264207 18.2534483 37.61938085 25 40 C25 40.99 25 41.98 25 43 C22.46195322 44.46495337 19.91990283 45.92204322 17.375 47.375 C16.66214844 47.7875 15.94929688 48.2 15.21484375 48.625 C4.69080305 54.61115159 4.69080305 54.61115159 -1.12890625 53.20703125 C-2.61226941 52.76004448 -4.09020467 52.29469279 -5.5625 51.8125 C-6.30435547 51.59013672 -7.04621094 51.36777344 -7.81054688 51.13867188 C-16.00600509 48.59173072 -16.00600509 48.59173072 -19 46 C-21.38969382 37.53033297 -19.04137689 26.68732949 -16.10546875 18.5078125 C-14.90820499 16.41820609 -13.61276855 14.79778313 -12 13 C-11.53754883 12.48002441 -11.07509766 11.96004883 -10.59863281 11.42431641 C-7.13463534 7.54884962 -3.59136412 3.75747187 0 0 Z " fill="#F9C835" transform="translate(198,274)"/>
<path d="M0 0 C0.66 0.33 1.32 0.66 2 1 C5.09710304 15.98844928 4.93559187 26.86522725 -3 40 C-2.19175781 39.36191406 -1.38351563 38.72382813 -0.55078125 38.06640625 C0.52828424 37.23130339 1.60773163 36.39669385 2.6875 35.5625 C3.21794922 35.14162109 3.74839844 34.72074219 4.29492188 34.28710938 C9.09666713 30.60478939 12.92831828 29.86405367 18.86328125 29.90234375 C20.19262695 29.90717773 20.19262695 29.90717773 21.54882812 29.91210938 C22.46083984 29.92048828 23.37285156 29.92886719 24.3125 29.9375 C25.24384766 29.94201172 26.17519531 29.94652344 27.13476562 29.95117188 C29.42324373 29.96290766 31.71158808 29.97932637 34 30 C30.50690695 34.86279925 26.98710011 39.30359728 22.5625 43.375 C21.67691406 44.20773437 20.79132813 45.04046875 19.87890625 45.8984375 C13.99036399 50.19699345 7.7676299 50.34126078 0.75 50.3125 C-0.05179688 50.32861328 -0.85359375 50.34472656 -1.6796875 50.36132812 C-2.83597656 50.36229492 -2.83597656 50.36229492 -4.015625 50.36328125 C-4.70946289 50.36626221 -5.40330078 50.36924316 -6.11816406 50.37231445 C-8.58218724 49.88481635 -9.46023807 48.94819302 -11 47 C-13.73394242 36.54954555 -14.14976316 21.87382795 -9.375 12.0625 C-6.68714383 7.64033663 -3.56936056 3.73933011 0 0 Z " fill="#F9C734" transform="translate(167,298)"/>
<path d="M0 0 C3.95208474 3.49468044 5.05084323 7.88327938 6.75 12.75 C7.07871094 13.63171875 7.40742188 14.5134375 7.74609375 15.421875 C9.61353234 20.71689075 10.38703479 24.40449866 9 30 C8.75121094 31.01964844 8.50242188 32.03929687 8.24609375 33.08984375 C7.97925781 34.02957031 7.71242187 34.96929687 7.4375 35.9375 C7.16808594 36.89527344 6.89867187 37.85304688 6.62109375 38.83984375 C6.41613281 39.55269531 6.21117187 40.26554687 6 41 C6.51949219 40.25234375 7.03898438 39.5046875 7.57421875 38.734375 C8.27160156 37.74953125 8.96898437 36.7646875 9.6875 35.75 C10.37199219 34.77546875 11.05648437 33.8009375 11.76171875 32.796875 C16.16070406 27.30006264 20.49870291 25.14280161 27.0625 23.1875 C27.76955078 22.95869141 28.47660156 22.72988281 29.20507812 22.49414062 C35.55907817 20.54319413 35.55907817 20.54319413 39 22 C29.74746584 42.39763212 29.74746584 42.39763212 20.125 46.5 C18.43221613 47.05035038 16.72233191 47.55058308 15 48 C13.67162109 48.34998047 13.67162109 48.34998047 12.31640625 48.70703125 C3.87966049 50.65011534 3.87966049 50.65011534 0 49 C-1.34156173 46.3744153 -2.29098705 44.08554963 -3.1875 41.3125 C-3.43435547 40.60416016 -3.68121094 39.89582031 -3.93554688 39.16601562 C-4.42076461 37.7647068 -4.89218075 36.35853674 -5.34912109 34.94775391 C-5.91057147 33.26761472 -6.56614249 31.61946957 -7.23828125 29.98046875 C-9.03197896 22.96205157 -6.29582199 16.17381756 -4 9.5625 C-3.72671875 8.74845703 -3.4534375 7.93441406 -3.171875 7.09570312 C-1.14795354 1.14795354 -1.14795354 1.14795354 0 0 Z " fill="#F9C734" transform="translate(141,328)"/>
<path d="M0 0 C0.66 0 1.32 0 2 0 C9.29217439 8.29085954 14.45527128 17.93519788 15 29 C15.19368513 30.41874356 15.39965181 31.8359401 15.625 33.25 C15.74875 34.1575 15.8725 35.065 16 36 C16.4021875 34.71416016 16.4021875 34.71416016 16.8125 33.40234375 C21.34723344 20.17106559 28.88368354 15.37802898 41 9 C41.33 9 41.66 9 42 9 C41.49207359 18.81991069 38.93240169 29.71865192 32 37 C29.44832019 39.10353276 26.78441524 40.99918604 24.0625 42.875 C23.00772461 43.64070313 23.00772461 43.64070313 21.93164062 44.421875 C16.88153181 47.92429348 16.88153181 47.92429348 13.31640625 48.23046875 C9.86783426 46.39859662 8.01128085 43.5961905 5.875 40.4375 C5.44574219 39.84130859 5.01648438 39.24511719 4.57421875 38.63085938 C-0.52245852 31.31516723 -2.50110142 24.83194279 -2.3125 15.9375 C-2.31572266 15.17373047 -2.31894531 14.40996094 -2.32226562 13.62304688 C-2.27622456 8.73013694 -1.54726312 4.64178935 0 0 Z " fill="#FAC734" transform="translate(123,365)"/>
<path d="M0 0 C0.87914062 0.00451172 1.75828125 0.00902344 2.6640625 0.01367188 C4.81773803 0.02537663 6.97137817 0.04330931 9.125 0.0625 C7.66803542 4.79324644 4.86000613 7.87888191 1.5 11.375 C0.39711863 12.52342138 -0.70574598 13.67185885 -1.80859375 14.8203125 C-2.34210449 15.37364258 -2.87561523 15.92697266 -3.42529297 16.49707031 C-5.02318309 18.17573657 -5.02318309 18.17573657 -6.84765625 20.6171875 C-10.90563223 25.66423735 -14.86643815 26.85962645 -21.1875 27.5625 C-27.7293302 28.12822207 -34.31323297 28.31760109 -40.875 28.0625 C-41.205 27.4025 -41.535 26.7425 -41.875 26.0625 C-25.53990076 3.12930186 -25.53990076 3.12930186 -13.3359375 0.51953125 C-8.87007053 -0.07020513 -4.49819787 -0.04403356 0 0 Z " fill="#F9C734" transform="translate(205.875,186.9375)"/>
<path d="M0 0 C-0.38309326 0.50789063 -0.76618652 1.01578125 -1.16088867 1.5390625 C-1.93783081 2.57160156 -1.93783081 2.57160156 -2.73046875 3.625 C-3.55877197 4.72134766 -3.55877197 4.72134766 -4.40380859 5.83984375 C-5.6930621 7.58461509 -6.91450724 9.37936767 -8.11328125 11.1875 C-11.62624741 15.68010325 -14.26601058 18.5494668 -19.94824219 19.48583984 C-27.31416812 19.9585138 -34.65095867 19.60501607 -42 19 C-33.07327644 0.13185681 -19.36386893 -2.24092252 0 0 Z " fill="#F9C834" transform="translate(242,285)"/>
<path d="M0 0 C0 8.61882523 -12.14533556 18.02751724 -18 24 C-26.13426398 32.07959183 -34.64535184 39.36950763 -44 46 C-44.66 45.67 -45.32 45.34 -46 45 C-42.27872989 41.50476797 -38.55290481 38.01438905 -34.8203125 34.53125 C-34.18883301 33.94150391 -33.55735352 33.35175781 -32.90673828 32.74414062 C-30.92883593 30.93490447 -28.91124212 29.18064861 -26.875 27.4375 C-18.81325735 20.48711356 -11.22362265 12.7212932 -4.3671875 4.5859375 C-2.98032408 2.97717593 -1.51930632 1.48334641 0 0 Z " fill="#F9C834" transform="translate(514,489)"/>
<path d="M0 0 C1.4778584 0.01006671 2.95572358 0.01918593 4.43359375 0.02734375 C7.99754028 0.04902629 11.56122415 0.08334464 15.125 0.125 C15.125 0.455 15.125 0.785 15.125 1.125 C14.29814697 1.18969482 13.47129395 1.25438965 12.61938477 1.32104492 C-8.713423 3.0287836 -29.75741618 5.65787258 -50.875 9.125 C-50.875 8.465 -50.875 7.805 -50.875 7.125 C-47.83656943 6.32057436 -44.79374334 5.53406124 -41.75 4.75 C-40.91339844 4.52828125 -40.07679688 4.3065625 -39.21484375 4.078125 C-26.12281928 0.73129168 -13.42873269 -0.16186555 0 0 Z " fill="#F9C834" transform="translate(291.875,2.875)"/>
<path d="M0 0 C0.66 0 1.32 0 2 0 C0.58672951 7.81017903 -2.16297934 14.67227106 -5.3125 21.9375 C-6.0230957 23.61102539 -6.0230957 23.61102539 -6.74804688 25.31835938 C-9.60928832 31.99980827 -12.66114213 38.54390198 -16 45 C-16.66 45 -17.32 45 -18 45 C-17.43356805 40.76541401 -16.43618596 37.28751749 -14.671875 33.40234375 C-14.20378418 32.35884766 -13.73569336 31.31535156 -13.25341797 30.24023438 C-12.75729004 29.15033203 -12.26116211 28.06042969 -11.75 26.9375 C-8.20984277 19.04715922 -4.7661201 11.19022744 -1.8046875 3.0625 C-1 1 -1 1 0 0 Z " fill="#FAC835" transform="translate(550,418)"/>
<path d="M0 0 C0 0.66 0 1.32 0 2 C-2.74615804 3.48638267 -5.49754691 4.96281172 -8.25 6.4375 C-9.02730469 6.85837891 -9.80460938 7.27925781 -10.60546875 7.71289062 C-11.73662109 8.31713867 -11.73662109 8.31713867 -12.890625 8.93359375 C-13.58188477 9.30540771 -14.27314453 9.67722168 -14.98535156 10.06030273 C-16.98014949 10.99074108 -18.85192798 11.54300821 -21 12 C-19.57201965 7.71605896 -16.43472604 6.80818812 -12.625 4.875 C-11.59632813 4.33552734 -11.59632813 4.33552734 -10.546875 3.78515625 C-3.2600948 0 -3.2600948 0 0 0 Z " fill="#FAC835" transform="translate(188,29)"/>
<path d="M0 0 C0 0.66 0 1.32 0 2 C-2.45570175 3.33838733 -4.91429916 4.67086232 -7.375 6 C-8.42300781 6.57234375 -8.42300781 6.57234375 -9.4921875 7.15625 C-14.7734375 10 -14.7734375 10 -17 10 C-17 9.34 -17 8.68 -17 8 C-14.73354942 6.65869239 -12.46239903 5.32683766 -10.1875 4 C-9.54490234 3.6184375 -8.90230469 3.236875 -8.24023438 2.84375 C-3.33984375 0 -3.33984375 0 0 0 Z " fill="#FAC834" transform="translate(433,558)"/>
<path d="M0 0 C-0.33 0.99 -0.66 1.98 -1 3 C-3.6171875 4.203125 -3.6171875 4.203125 -6.875 5.25 C-7.94492188 5.60578125 -9.01484375 5.9615625 -10.1171875 6.328125 C-13 7 -13 7 -16 6 C-11.18414715 2.83959657 -5.84393528 0 0 0 Z " fill="#FAC834" transform="translate(215,18)"/>
<path d="M0 0 C-2.34591852 2.7710688 -4.14776201 3.52059284 -7.6875 4.1875 C-8.49574219 4.34605469 -9.30398437 4.50460938 -10.13671875 4.66796875 C-11.05904297 4.83232422 -11.05904297 4.83232422 -12 5 C-12 4.34 -12 3.68 -12 3 C-4.71428571 -0.42857143 -4.71428571 -0.42857143 0 0 Z " fill="#F9C835" transform="translate(229,14)"/>
</svg>
